<svg width="400" height="400" xmlns="http://www.w3.org/2000/svg">

<g transform="translate(200, 200) rotate(0)">
  <rect 
    x="-200" 
    y="-200" 
    width="400" 
    height="400" 
    rx="80" 
    fill="rgba(0, 255, 208, 1)"
    stroke="none"
    stroke-width="0"
  />
</g>
<g transform="translate(200, 200) rotate(0) scale(1, 1) scale(1.45)">
  <g transform="scale(10.916666666666666)" stroke="rgb(62, 62, 62)" stroke-width="1.5" stroke-linecap="round" stroke-linejoin="round" fill="none" fill-opacity="0" opacity="1">
    <g transform="translate(-12, -12)">
      <path d="M8.62 13.8A2.25 2.25 0 1 1 12 10.836a2.25 2.25 0 1 1 3.38 2.966l-2.626 2.856a.998.998 0 0 1-1.507 0z"></path><path d="M3 10a2 2 0 0 1 .709-1.528l7-6a2 2 0 0 1 2.582 0l7 6A2 2 0 0 1 21 10v9a2 2 0 0 1-2 2H5a2 2 0 0 1-2-2z"></path>
    </g>
  </g>
</g>
</svg>